<svg width="24" height="24" viewBox="0 0 24 24" fill="none" xmlns="http://www.w3.org/2000/svg">
<path d="M1.5 8.31893C1.5 7.80853 1.75953 7.33316 2.18886 7.05716L11.1889 1.27145C11.683 0.953802 12.317 0.953802 12.8111 1.27144L21.8111 7.05716C22.2405 7.33316 22.5 7.80853 22.5 8.31893V20.25C22.5 21.0784 21.8284 21.75 21 21.75H3C2.17157 21.75 1.5 21.0784 1.5 20.25V8.31893Z" stroke="#9805B6" stroke-width="1.125" stroke-linejoin="round"/>
<path d="M1.5 8.31893C1.5 7.80853 1.75953 7.33316 2.18886 7.05716L11.1889 1.27145C11.683 0.953802 12.317 0.953802 12.8111 1.27144L21.8111 7.05716C22.2405 7.33316 22.5 7.80853 22.5 8.31893V20.25C22.5 21.0784 21.8284 21.75 21 21.75H3C2.17157 21.75 1.5 21.0784 1.5 20.25V8.31893Z" stroke="#9805B6" stroke-width="1.125" stroke-linejoin="round"/>
<path d="M8.25 12.7499C8.25 11.9215 8.92161 11.2499 9.75006 11.2499L12 11.25L14.2499 11.2499C15.0784 11.2499 15.75 11.9215 15.75 12.7499V21.7499H8.25V12.7499Z" stroke="#9805B6" stroke-width="1.125" stroke-linejoin="round"/>
<path d="M8.25 12.7499C8.25 11.9215 8.92161 11.2499 9.75006 11.2499L12 11.25L14.2499 11.2499C15.0784 11.2499 15.75 11.9215 15.75 12.7499V21.7499H8.25V12.7499Z" stroke="#9805B6" stroke-width="1.125" stroke-linejoin="round"/>
</svg>
