<svg width="24" height="24" viewBox="0 0 24 24" fill="none" xmlns="http://www.w3.org/2000/svg">
<ellipse cx="12" cy="7.78119" rx="2.8125" ry="2.8125" stroke="#9805B6" stroke-width="1.125" stroke-linejoin="round"/>
<ellipse cx="12" cy="7.78119" rx="2.8125" ry="2.8125" stroke="#9805B6" stroke-width="1.125" stroke-linejoin="round"/>
<ellipse cx="12" cy="12" rx="11.25" ry="11.25" stroke="#9805B6" stroke-width="1.125" stroke-linejoin="round"/>
<ellipse cx="12" cy="12" rx="11.25" ry="11.25" stroke="#9805B6" stroke-width="1.125" stroke-linejoin="round"/>
<path d="M17.8464 14.5002C17.9724 14.8044 18.0742 15.1173 18.1512 15.4359C18.3457 16.2411 17.6566 16.9219 16.8281 16.9219H12L7.17188 16.9219C6.34345 16.9219 5.65429 16.2411 5.84882 15.4359C5.92579 15.1173 6.02757 14.8044 6.15357 14.5002C6.47159 13.7324 6.93772 13.0348 7.52534 12.4472C8.11296 11.8596 8.81057 11.3935 9.57833 11.0754C10.3461 10.7574 11.169 10.5938 12 10.5938C12.831 10.5937 13.6539 10.7574 14.4217 11.0754C15.1894 11.3935 15.887 11.8596 16.4747 12.4472C17.0623 13.0348 17.5284 13.7324 17.8464 14.5002Z" stroke="#9805B6" stroke-width="1.125" stroke-linejoin="round"/>
<path d="M17.8464 14.5002C17.9724 14.8044 18.0742 15.1173 18.1512 15.4359C18.3457 16.2411 17.6566 16.9219 16.8281 16.9219H12L7.17188 16.9219C6.34345 16.9219 5.65429 16.2411 5.84882 15.4359C5.92579 15.1173 6.02757 14.8044 6.15357 14.5002C6.47159 13.7324 6.93772 13.0348 7.52534 12.4472C8.11296 11.8596 8.81057 11.3935 9.57833 11.0754C10.3461 10.7574 11.169 10.5938 12 10.5938C12.831 10.5937 13.6539 10.7574 14.4217 11.0754C15.1894 11.3935 15.887 11.8596 16.4747 12.4472C17.0623 13.0348 17.5284 13.7324 17.8464 14.5002Z" stroke="#9805B6" stroke-width="1.125" stroke-linejoin="round"/>
</svg>
